<svg xmlns="http://www.w3.org/2000/svg" width="980" height="650" viewBox="0 0 980 650">
  <defs>
    <pattern id="grid9" width="60" height="60" patternUnits="userSpaceOnUse">
      <rect width="60" height="60" fill="#f4efe4" stroke="#8a7f70" stroke-width="2"/>
    </pattern>
  </defs>
  <rect width="980" height="650" fill="#25272c"/>
  <text x="70" y="43" fill="#f2eee5" font-family="Geist, Arial, sans-serif" font-size="26" font-weight="700">B案・9×8 経路選択盤面</text>
  <text x="70" y="66" fill="#b9b4aa" font-family="Geist, Arial, sans-serif" font-size="15">論理座標図／表示時は斜め見下ろし</text>
  <rect x="70" y="80" width="540" height="480" fill="url(#grid9)" stroke="#d1b46e" stroke-width="4"/>

  <g fill="#b9b4aa" font-family="Geist Mono, Consolas, monospace" font-size="14" text-anchor="middle">
    <text x="100" y="75">0</text><text x="160" y="75">1</text><text x="220" y="75">2</text><text x="280" y="75">3</text><text x="340" y="75">4</text>
    <text x="400" y="75">5</text><text x="460" y="75">6</text><text x="520" y="75">7</text><text x="580" y="75">8</text>
  </g>
  <g fill="#b9b4aa" font-family="Geist Mono, Consolas, monospace" font-size="14" text-anchor="end">
    <text x="62" y="116">0</text><text x="62" y="176">1</text><text x="62" y="236">2</text><text x="62" y="296">3</text>
    <text x="62" y="356">4</text><text x="62" y="416">5</text><text x="62" y="476">6</text><text x="62" y="536">7</text>
  </g>

  <g fill="#4f8e9d" stroke="#326b78" stroke-width="2">
    <rect x="430" y="80" width="60" height="60"/><rect x="430" y="140" width="60" height="60"/>
    <rect x="430" y="260" width="60" height="60"/><rect x="430" y="320" width="60" height="60"/>
    <rect x="430" y="440" width="60" height="60"/><rect x="430" y="500" width="60" height="60"/>
  </g>
  <g fill="#c3a66a" stroke="#796342" stroke-width="3">
    <rect x="430" y="200" width="60" height="60"/><rect x="430" y="380" width="60" height="60"/>
  </g>
  <g stroke="#8f774f" stroke-width="3">
    <path d="M438 208 L482 252 M482 208 L438 252"/><path d="M438 388 L482 432 M482 388 L438 432"/>
  </g>

  <g fill="#5c5146" stroke="#3d3731" stroke-width="3">
    <rect x="190" y="210" width="60" height="60"/><rect x="190" y="270" width="60" height="60"/>
    <rect x="310" y="270" width="60" height="60"/><rect x="310" y="330" width="60" height="60"/>
    <rect x="70" y="80" width="60" height="60"/><rect x="550" y="80" width="60" height="60"/>
    <rect x="70" y="500" width="60" height="60"/><rect x="550" y="500" width="60" height="60"/>
  </g>
  <g fill="#f4efe4" font-family="Geist, Arial, sans-serif" font-size="18" font-weight="700" text-anchor="middle">
    <text x="220" y="247">X</text><text x="220" y="307">X</text><text x="340" y="307">X</text><text x="340" y="367">X</text>
  </g>

  <g fill="#a75357" stroke="#73383b" stroke-width="4">
    <circle cx="160" cy="170" r="20"/><circle cx="340" cy="170" r="20"/><circle cx="520" cy="170" r="20"/>
  </g>
  <g fill="#3e79ad" stroke="#28577e" stroke-width="4">
    <circle cx="160" cy="470" r="20"/><circle cx="280" cy="470" r="20"/><circle cx="400" cy="470" r="20"/>
  </g>
  <path d="M520 326 L536 350 L520 374 L504 350 Z" fill="#c59a3d" stroke="#7f642b" stroke-width="3"/>

  <g font-family="Geist, Arial, sans-serif">
    <text x="654" y="110" fill="#f2eee5" font-size="21" font-weight="700">狙い</text>
    <text x="654" y="142" fill="#d5d0c6" font-size="17">・中央の障害物を回り込む</text>
    <text x="654" y="171" fill="#d5d0c6" font-size="17">・上下2本の橋を選ぶ</text>
    <text x="654" y="200" fill="#d5d0c6" font-size="17">・右岸の敵と報酬を判断</text>
    <text x="654" y="229" fill="#d5d0c6" font-size="17">・部隊を分ける危険を確認</text>

    <text x="654" y="286" fill="#f2eee5" font-size="21" font-weight="700">凡例</text>
    <circle cx="672" cy="326" r="14" fill="#3e79ad"/><text x="700" y="332" fill="#d5d0c6" font-size="17">味方仮配置</text>
    <circle cx="672" cy="366" r="14" fill="#a75357"/><text x="700" y="372" fill="#d5d0c6" font-size="17">敵仮配置</text>
    <rect x="658" y="394" width="28" height="28" fill="#5c5146"/><text x="700" y="415" fill="#d5d0c6" font-size="17">通行不可</text>
    <rect x="658" y="434" width="28" height="28" fill="#4f8e9d"/><text x="700" y="455" fill="#d5d0c6" font-size="17">水路・進入不可</text>
    <rect x="658" y="474" width="28" height="28" fill="#c3a66a"/><text x="700" y="495" fill="#d5d0c6" font-size="17">橋・通常移動</text>
    <path d="M672 516 L686 534 L672 552 L658 534 Z" fill="#c59a3d"/><text x="700" y="540" fill="#d5d0c6" font-size="17">仮アイテム</text>

    <text x="654" y="584" fill="#d1b46e" font-size="18" font-weight="700">比較上の位置づけ</text>
    <text x="654" y="613" fill="#d5d0c6" font-size="16">操作確認後の戦術テスト用。</text>
  </g>
</svg>
